<svg xmlns="http://www.w3.org/2000/svg" viewBox="0 0 32 32" width="32" height="32">
  <defs>
    <linearGradient id="shieldGrad" x1="0%" y1="0%" x2="100%" y2="100%">
      <stop offset="0%" style="stop-color:#4ade80"/>
      <stop offset="100%" style="stop-color:#16a34a"/>
    </linearGradient>
  </defs>
  <!-- Shield -->
  <path d="M16 2 L28 7 C29 8, 30 12, 29 16 C28 22, 22 28, 16 30 C10 28, 4 22, 3 16 C2 12, 3 8, 4 7 Z" 
        fill="url(#shieldGrad)"/>
  <!-- Inner dark -->
  <path d="M16 5 L25 9 C26 10, 26 13, 25 16 C24 21, 20 25, 16 27 C12 25, 8 21, 7 16 C6 13, 6 10, 7 9 Z" 
        fill="#111827"/>
  <!-- Network nodes -->
  <circle cx="16" cy="10" r="2" fill="#4ade80"/>
  <circle cx="16" cy="16" r="2.5" fill="#4ade80"/>
  <circle cx="16" cy="22" r="2" fill="#4ade80"/>
  <line x1="16" y1="10" x2="16" y2="22" stroke="#4ade80" stroke-width="1.5"/>
  <line x1="11" y1="13" x2="16" y2="16" stroke="#4ade80" stroke-width="1"/>
  <line x1="21" y1="13" x2="16" y2="16" stroke="#4ade80" stroke-width="1"/>
  <circle cx="11" cy="13" r="1.5" fill="#4ade80"/>
  <circle cx="21" cy="13" r="1.5" fill="#4ade80"/>
</svg>
